<svg width="679" height="107" viewBox="0 0 679 107" fill="none" xmlns="http://www.w3.org/2000/svg">
<path d="M81.43 0.849999C80.6367 7.65 80.24 13.77 80.24 19.21C80.24 23.63 80.41 27.1433 80.75 29.75H76.84C76.0467 20.4567 74.0633 13.9967 70.89 10.37C67.83 6.63 62.7867 4.76 55.76 4.76H43.35C39.27 4.76 36.2667 5.1 34.34 5.78C32.5267 6.34667 31.28 7.59334 30.6 9.52C29.92 11.4467 29.58 14.5633 29.58 18.87V50.49H43.69C47.3167 50.49 50.0933 49.5833 52.02 47.77C53.9467 45.8433 55.25 43.8033 55.93 41.65C56.61 39.3833 57.2333 36.55 57.8 33.15H61.71C61.37 37.0033 61.2 41.1967 61.2 45.73V52.19C61.2 56.61 61.54 62.9567 62.22 71.23H58.31C57.63 65.79 56.3267 61.54 54.4 58.48C52.4733 55.42 48.9033 53.89 43.69 53.89H29.58V86.19C29.58 90.4967 30.0333 93.6133 30.94 95.54C31.8467 97.4667 33.4333 98.77 35.7 99.45C37.9667 100.13 41.65 100.583 46.75 100.81V104.21C40.8567 103.87 32.5267 103.7 21.76 103.7C12.0133 103.7 4.76 103.87 0 104.21V100.81C4.08 100.583 7.02667 100.13 8.84 99.45C10.7667 98.77 12.07 97.4667 12.75 95.54C13.43 93.6133 13.77 90.4967 13.77 86.19V18.87C13.77 14.5633 13.43 11.4467 12.75 9.52C12.07 7.59334 10.7667 6.29 8.84 5.61C7.02667 4.93 4.08 4.47667 0 4.25001V0.849999C10.7667 1.19 26.6333 1.36 47.6 1.36C63.4667 1.36 74.7433 1.19 81.43 0.849999Z" fill="white"/>
<path d="M165.883 4.25001C161.803 4.47667 158.799 4.93 156.873 5.61C155.059 6.29 153.813 7.59334 153.133 9.52C152.453 11.4467 152.113 14.5633 152.113 18.87V86.19C152.113 90.4967 152.453 93.6133 153.133 95.54C153.813 97.4667 155.059 98.77 156.873 99.45C158.799 100.13 161.803 100.583 165.883 100.81V104.21C160.669 103.87 153.473 103.7 144.293 103.7C134.546 103.7 127.293 103.87 122.533 104.21V100.81C126.613 100.583 129.559 100.13 131.373 99.45C133.299 98.77 134.603 97.4667 135.283 95.54C135.963 93.6133 136.303 90.4967 136.303 86.19V18.87C136.303 14.5633 135.963 11.4467 135.283 9.52C134.603 7.59334 133.299 6.29 131.373 5.61C129.559 4.93 126.613 4.47667 122.533 4.25001V0.849999C127.293 1.19 134.546 1.36 144.293 1.36C153.359 1.36 160.556 1.19 165.883 0.849999V4.25001Z" fill="white"/>
<path d="M299.99 0.849999C299.197 8.33 298.8 15.0167 298.8 20.91C298.8 26.8033 298.97 31.45 299.31 34.85H295.4C294.72 26.9167 293.644 20.8533 292.17 16.66C290.697 12.4667 288.317 9.46333 285.03 7.65C281.744 5.72333 277.04 4.76 270.92 4.76H260.04V84.49C260.04 89.25 260.494 92.7067 261.4 94.86C262.307 97.0133 263.894 98.4867 266.16 99.28C268.427 100.073 272.11 100.583 277.21 100.81V104.21C271.317 103.87 262.987 103.7 252.22 103.7C240.887 103.7 232.5 103.87 227.06 104.21V100.81C232.16 100.583 235.844 100.073 238.11 99.28C240.377 98.4867 241.964 97.0133 242.87 94.86C243.777 92.7067 244.23 89.25 244.23 84.49V4.76H233.35C227.23 4.76 222.527 5.72333 219.24 7.65C215.954 9.46333 213.574 12.4667 212.1 16.66C210.627 20.8533 209.55 26.9167 208.87 34.85H204.96C205.3 31.2233 205.47 26.5767 205.47 20.91C205.47 15.0167 205.074 8.33 204.28 0.849999C213.687 1.19 229.667 1.36 252.22 1.36C274.66 1.36 290.584 1.19 299.99 0.849999Z" fill="white"/>
<path d="M393.126 49.13C404.913 50.6033 413.356 53.8333 418.456 58.82C423.556 63.6933 426.106 69.53 426.106 76.33C426.106 81.77 424.52 86.5867 421.346 90.78C418.286 94.9733 413.81 98.26 407.916 100.64C402.023 103.02 395.053 104.21 387.006 104.21C384.173 104.21 381.736 104.153 379.696 104.04C372.67 103.813 365.926 103.7 359.466 103.7C350.173 103.7 343.146 103.87 338.386 104.21V100.81C342.466 100.583 345.413 100.13 347.226 99.45C349.153 98.77 350.456 97.4667 351.136 95.54C351.816 93.6133 352.156 90.4967 352.156 86.19V18.87C352.156 14.5633 351.816 11.4467 351.136 9.52C350.456 7.59334 349.153 6.29 347.226 5.61C345.413 4.93 342.466 4.47667 338.386 4.25001V0.849999C343.146 1.19 350.06 1.36 359.126 1.36L376.466 1.19C378.393 1.07667 380.603 1.02 383.096 1.02C394.09 1.02 402.533 3.17333 408.426 7.48001C414.32 11.6733 417.266 17.2833 417.266 24.31C417.266 29.75 415.34 34.6233 411.486 38.93C407.633 43.2367 401.513 46.5233 393.126 48.79V49.13ZM378.846 4.25001C375.786 4.25001 373.463 4.64667 371.876 5.44C370.403 6.23334 369.383 7.65 368.816 9.69C368.25 11.73 367.966 14.79 367.966 18.87V48.79H377.656C386.383 48.79 392.446 46.8067 395.846 42.84C399.246 38.8733 400.946 33.32 400.946 26.18C400.946 18.8133 399.19 13.3167 395.676 9.69C392.163 6.06334 386.553 4.25001 378.846 4.25001ZM379.016 100.3C389.33 100.3 396.923 98.26 401.796 94.18C406.67 89.9867 409.106 83.81 409.106 75.65C409.106 67.7167 406.84 61.7667 402.306 57.8C397.773 53.72 390.52 51.68 380.546 51.68H367.966V86.19C367.966 90.27 368.25 93.2733 368.816 95.2C369.383 97.1267 370.403 98.4867 371.876 99.28C373.463 99.96 375.843 100.3 379.016 100.3Z" fill="white"/>
<path d="M543.182 89.93C546.242 96.9567 550.152 100.583 554.912 100.81V104.21C550.379 103.87 544.315 103.7 536.722 103.7C526.975 103.7 519.722 103.87 514.962 104.21V100.81C519.155 100.583 522.215 100.017 524.142 99.11C526.182 98.2033 527.202 96.6733 527.202 94.52C527.202 92.7067 526.409 90.0433 524.822 86.53L516.152 67.15H474.842L469.062 79.9C467.135 84.32 466.172 87.9467 466.172 90.78C466.172 93.7267 467.192 96.05 469.232 97.75C471.385 99.3367 474.785 100.357 479.432 100.81V104.21C476.032 103.87 470.875 103.7 463.962 103.7C457.049 103.7 452.119 103.87 449.172 104.21V100.81C452.232 100.017 454.839 98.3167 456.992 95.71C459.145 92.99 461.185 89.42 463.112 85L500.682 0H503.402L543.182 89.93ZM514.792 63.75L495.582 20.57L476.202 63.75H514.792Z" fill="white"/>
<path d="M678.878 97.07C676.724 100.13 674.231 102.51 671.398 104.21C668.678 105.797 665.391 106.59 661.538 106.59C652.018 106.59 646.181 102.283 644.028 93.67L638.758 72.42C637.171 66.0733 634.791 61.8233 631.618 59.67C628.558 57.5167 623.968 56.44 617.848 56.44H608.158V86.19C608.158 90.4967 608.498 93.6133 609.178 95.54C609.858 97.4667 611.104 98.77 612.918 99.45C614.844 100.13 617.848 100.583 621.928 100.81V104.21C616.714 103.87 609.518 103.7 600.338 103.7C590.591 103.7 583.338 103.87 578.578 104.21V100.81C582.658 100.583 585.604 100.13 587.418 99.45C589.344 98.77 590.648 97.4667 591.328 95.54C592.008 93.6133 592.348 90.4967 592.348 86.19V18.87C592.348 14.5633 592.008 11.4467 591.328 9.52C590.648 7.59334 589.344 6.29 587.418 5.61C585.604 4.93 582.658 4.47667 578.578 4.25001V0.849999C583.338 1.19 590.251 1.36 599.318 1.36L616.658 1.19C618.584 1.07667 620.794 1.02 623.288 1.02C635.981 1.02 645.671 3.4 652.358 8.16001C659.158 12.92 662.558 19.0967 662.558 26.69C662.558 33.2633 659.894 39.27 654.568 44.71C649.354 50.15 640.741 53.6067 628.728 55.08C630.994 55.3067 632.921 55.5333 634.508 55.76C640.514 56.6667 645.274 58.48 648.788 61.2C652.301 63.92 654.794 68.2833 656.268 74.29L660.008 89.76C660.914 93.7267 661.878 96.56 662.898 98.26C664.031 99.8467 665.448 100.64 667.148 100.64C669.981 100.64 673.098 98.7133 676.498 94.86L678.878 97.07ZM619.038 4.25001C615.978 4.25001 613.654 4.64667 612.068 5.44C610.594 6.23334 609.574 7.65 609.008 9.69C608.441 11.73 608.158 14.79 608.158 18.87V53.04H619.548C629.521 53.04 636.321 50.9433 639.948 46.75C643.688 42.4433 645.558 36.38 645.558 28.56C645.558 20.4 643.461 14.3367 639.268 10.37C635.188 6.29 628.444 4.25001 619.038 4.25001Z" fill="white"/>
</svg>
